<svg xmlns="http://www.w3.org/2000/svg" viewBox="0 0 100 100">
  <defs>
    <linearGradient id="phoneGradient" x1="0%" y1="0%" x2="100%" y2="100%">
      <stop offset="0%" style="stop-color:#9b87f5;stop-opacity:1" />
      <stop offset="100%" style="stop-color:#D946EF;stop-opacity:1" />
    </linearGradient>
  </defs>
  <path fill="url(#phoneGradient)" d="M82.5,67.5c-1.2-1.2-8.1-5.4-11.7-6.9c-3.6-1.5-5.7-1.5-7.8,0.6l-3.6,3.6c-0.9,0.9-2.4,0.9-3.3,0c-5.4-3.6-12.9-11.1-16.5-16.5c-0.9-0.9-0.9-2.4,0-3.3l3.6-3.6c2.1-2.1,2.1-4.2,0.6-7.8c-1.5-3.6-5.7-10.5-6.9-11.7c-1.5-1.5-3.9-1.8-6.3-0.6c-3.3,1.8-9.6,7.5-10.8,12.3c-1.2,4.8,0.3,12.6,9.6,23.4c9.3,10.8,18.3,15.9,23.1,17.1c4.8,1.2,10.5-0.9,15.6-6c2.1-2.1,1.8-4.8,0.3-6.6z"/>
</svg>